<?xml version="1.0" encoding="UTF-8"?>
<svg width="1024" height="1024" viewBox="0 0 1024 1024" fill="none" xmlns="http://www.w3.org/2000/svg">
  <rect width="1024" height="1024" fill="#4A90E2"/>
  <path d="M512 256C384 256 280 360 280 488C280 616 384 720 512 720C640 720 744 616 744 488C744 360 640 256 512 256ZM512 672C408 672 328 592 328 488C328 384 408 304 512 304C616 304 696 384 696 488C696 592 616 672 512 672Z" fill="white"/>
  <path d="M512 384C448 384 400 432 400 496C400 560 448 608 512 608C576 608 624 560 624 496C624 432 576 384 512 384Z" fill="white"/>
</svg> 